<svg id="visual" viewBox="0 0 960 540" width="960" height="540" xmlns="http://www.w3.org/2000/svg" xmlns:xlink="http://www.w3.org/1999/xlink" version="1.1"><rect x="0" y="0" width="960" height="540" fill="#bde1db"></rect><path d="M0 197L22.8 199.3C45.7 201.7 91.3 206.3 137 199.7C182.7 193 228.3 175 274 172.2C319.7 169.3 365.3 181.7 411.2 185C457 188.3 503 182.7 548.8 185.5C594.7 188.3 640.3 199.7 686 195C731.7 190.3 777.3 169.7 823 158.5C868.7 147.3 914.3 145.7 937.2 144.8L960 144L960 0L937.2 0C914.3 0 868.7 0 823 0C777.3 0 731.7 0 686 0C640.3 0 594.7 0 548.8 0C503 0 457 0 411.2 0C365.3 0 319.7 0 274 0C228.3 0 182.7 0 137 0C91.3 0 45.7 0 22.8 0L0 0Z" fill="#ffd6ba"></path><path d="M0 110L22.8 114.7C45.7 119.3 91.3 128.7 137 133.7C182.7 138.7 228.3 139.3 274 144.8C319.7 150.3 365.3 160.7 411.2 158.2C457 155.7 503 140.3 548.8 140.8C594.7 141.3 640.3 157.7 686 164.7C731.7 171.7 777.3 169.3 823 160.2C868.7 151 914.3 135 937.2 127L960 119L960 0L937.2 0C914.3 0 868.7 0 823 0C777.3 0 731.7 0 686 0C640.3 0 594.7 0 548.8 0C503 0 457 0 411.2 0C365.3 0 319.7 0 274 0C228.3 0 182.7 0 137 0C91.3 0 45.7 0 22.8 0L0 0Z" fill="#e0b0ac"></path><path d="M0 91L22.8 98.7C45.7 106.3 91.3 121.7 137 127.8C182.7 134 228.3 131 274 124.5C319.7 118 365.3 108 411.2 100.8C457 93.7 503 89.3 548.8 93.3C594.7 97.3 640.3 109.7 686 111.3C731.7 113 777.3 104 823 104.8C868.7 105.7 914.3 116.3 937.2 121.7L960 127L960 0L937.2 0C914.3 0 868.7 0 823 0C777.3 0 731.7 0 686 0C640.3 0 594.7 0 548.8 0C503 0 457 0 411.2 0C365.3 0 319.7 0 274 0C228.3 0 182.7 0 137 0C91.3 0 45.7 0 22.8 0L0 0Z" fill="#b5909f"></path><path d="M0 85L22.8 84.2C45.7 83.3 91.3 81.7 137 84.5C182.7 87.3 228.3 94.7 274 94.3C319.7 94 365.3 86 411.2 78.3C457 70.7 503 63.3 548.8 62.8C594.7 62.3 640.3 68.7 686 76.7C731.7 84.7 777.3 94.3 823 96.8C868.7 99.3 914.3 94.7 937.2 92.3L960 90L960 0L937.2 0C914.3 0 868.7 0 823 0C777.3 0 731.7 0 686 0C640.3 0 594.7 0 548.8 0C503 0 457 0 411.2 0C365.3 0 319.7 0 274 0C228.3 0 182.7 0 137 0C91.3 0 45.7 0 22.8 0L0 0Z" fill="#84758b"></path><path d="M0 52L22.8 48.3C45.7 44.7 91.3 37.3 137 39.5C182.7 41.7 228.3 53.3 274 52.8C319.7 52.3 365.3 39.7 411.2 38.7C457 37.7 503 48.3 548.8 53.5C594.7 58.7 640.3 58.3 686 55.3C731.7 52.3 777.3 46.7 823 44.2C868.7 41.7 914.3 42.3 937.2 42.7L960 43L960 0L937.2 0C914.3 0 868.7 0 823 0C777.3 0 731.7 0 686 0C640.3 0 594.7 0 548.8 0C503 0 457 0 411.2 0C365.3 0 319.7 0 274 0C228.3 0 182.7 0 137 0C91.3 0 45.7 0 22.8 0L0 0Z" fill="#555b6e"></path></svg>