<svg xmlns="http://www.w3.org/2000/svg" xmlns:xlink="http://www.w3.org/1999/xlink" id="visual" width="960" height="540" version="1.1" viewBox="0 0 960 540"><rect width="960" height="540" x="0" y="0" fill="#c8e9a0"/><path fill="#ffaebc" d="M0 171L22.8 164.7C45.7 158.3 91.3 145.7 137 143C182.7 140.3 228.3 147.7 274 154.3C319.7 161 365.3 167 411.2 164.8C457 162.7 503 152.3 548.8 148.5C594.7 144.7 640.3 147.3 686 150.8C731.7 154.3 777.3 158.7 823 154C868.7 149.3 914.3 135.7 937.2 128.8L960 122L960 0L937.2 0C914.3 0 868.7 0 823 0C777.3 0 731.7 0 686 0C640.3 0 594.7 0 548.8 0C503 0 457 0 411.2 0C365.3 0 319.7 0 274 0C228.3 0 182.7 0 137 0C91.3 0 45.7 0 22.8 0L0 0Z"/><path fill="#ffbbb5" d="M0 143L22.8 135.3C45.7 127.7 91.3 112.3 137 111.3C182.7 110.3 228.3 123.7 274 122.7C319.7 121.7 365.3 106.3 411.2 107.2C457 108 503 125 548.8 124.3C594.7 123.7 640.3 105.3 686 97.5C731.7 89.7 777.3 92.3 823 101.8C868.7 111.3 914.3 127.7 937.2 135.8L960 144L960 0L937.2 0C914.3 0 868.7 0 823 0C777.3 0 731.7 0 686 0C640.3 0 594.7 0 548.8 0C503 0 457 0 411.2 0C365.3 0 319.7 0 274 0C228.3 0 182.7 0 137 0C91.3 0 45.7 0 22.8 0L0 0Z"/><path fill="#ffcab5" d="M0 93L22.8 91.3C45.7 89.7 91.3 86.3 137 81.3C182.7 76.3 228.3 69.7 274 69.5C319.7 69.3 365.3 75.7 411.2 78.7C457 81.7 503 81.3 548.8 80.2C594.7 79 640.3 77 686 75.2C731.7 73.3 777.3 71.7 823 71.5C868.7 71.3 914.3 72.7 937.2 73.3L960 74L960 0L937.2 0C914.3 0 868.7 0 823 0C777.3 0 731.7 0 686 0C640.3 0 594.7 0 548.8 0C503 0 457 0 411.2 0C365.3 0 319.7 0 274 0C228.3 0 182.7 0 137 0C91.3 0 45.7 0 22.8 0L0 0Z"/><path fill="#fed9bb" d="M0 76L22.8 73C45.7 70 91.3 64 137 59.2C182.7 54.3 228.3 50.7 274 51.3C319.7 52 365.3 57 411.2 57.3C457 57.7 503 53.3 548.8 50.7C594.7 48 640.3 47 686 50.8C731.7 54.7 777.3 63.3 823 69.7C868.7 76 914.3 80 937.2 82L960 84L960 0L937.2 0C914.3 0 868.7 0 823 0C777.3 0 731.7 0 686 0C640.3 0 594.7 0 548.8 0C503 0 457 0 411.2 0C365.3 0 319.7 0 274 0C228.3 0 182.7 0 137 0C91.3 0 45.7 0 22.8 0L0 0Z"/><path fill="#fbe7c6" d="M0 24L22.8 24.3C45.7 24.7 91.3 25.3 137 28.2C182.7 31 228.3 36 274 34.7C319.7 33.3 365.3 25.7 411.2 26.5C457 27.3 503 36.7 548.8 40.7C594.7 44.7 640.3 43.3 686 39.3C731.7 35.3 777.3 28.7 823 27.5C868.7 26.3 914.3 30.7 937.2 32.8L960 35L960 0L937.2 0C914.3 0 868.7 0 823 0C777.3 0 731.7 0 686 0C640.3 0 594.7 0 548.8 0C503 0 457 0 411.2 0C365.3 0 319.7 0 274 0C228.3 0 182.7 0 137 0C91.3 0 45.7 0 22.8 0L0 0Z"/></svg>